<svg width="549" height="164" viewBox="0 0 549 164" fill="none" xmlns="http://www.w3.org/2000/svg">
<path d="M0 44.6083V111.596L103.082 78.1019L0 44.6083Z" fill="black"/>
<path d="M5.77667 118.83L70.9045 139.991C72.69 140.571 74.6454 139.935 75.7487 138.417L116 83.0159L5.77667 118.83Z" fill="black"/>
<path d="M75.7487 17.7865C74.6454 16.2675 72.6895 15.6321 70.9045 16.2126L5.77667 37.374L116 73.1877L75.7487 17.7865Z" fill="black"/>
<path d="M205.6 122.2C196.8 122.2 189.24 120.44 182.92 116.92C176.68 113.32 171.88 108.28 168.52 101.8C165.16 95.24 163.48 87.52 163.48 78.64C163.48 72 164.44 66.04 166.36 60.76C168.28 55.4 171.04 50.84 174.64 47.08C178.24 43.24 182.64 40.32 187.84 38.32C193.12 36.24 199.04 35.2 205.6 35.2C210 35.2 214.32 35.76 218.56 36.88C222.8 38 226.52 39.6 229.72 41.68C231.4 42.72 232.52 44 233.08 45.52C233.64 46.96 233.76 48.4 233.44 49.84C233.12 51.2 232.44 52.36 231.4 53.32C230.44 54.28 229.2 54.84 227.68 55C226.24 55.08 224.64 54.56 222.88 53.44C220.4 51.84 217.72 50.68 214.84 49.96C211.96 49.24 209.04 48.88 206.08 48.88C200.4 48.88 195.6 50.04 191.68 52.36C187.76 54.68 184.8 58.04 182.8 62.44C180.8 66.84 179.8 72.24 179.8 78.64C179.8 84.96 180.8 90.36 182.8 94.84C184.8 99.32 187.76 102.72 191.68 105.04C195.6 107.36 200.4 108.52 206.08 108.52C209.12 108.52 212.12 108.16 215.08 107.44C218.04 106.64 220.84 105.44 223.48 103.84C225.24 102.8 226.8 102.36 228.16 102.52C229.6 102.6 230.8 103.08 231.76 103.96C232.72 104.84 233.36 105.96 233.68 107.32C234 108.6 233.92 109.96 233.44 111.4C232.96 112.76 232 113.96 230.56 115C227.36 117.32 223.52 119.12 219.04 120.4C214.64 121.6 210.16 122.2 205.6 122.2ZM257.573 122.2C253.333 122.2 249.533 121.4 246.173 119.8C242.893 118.12 240.293 115.88 238.373 113.08C236.533 110.28 235.613 107.12 235.613 103.6C235.613 99.28 236.733 95.88 238.973 93.4C241.213 90.84 244.853 89 249.893 87.88C254.933 86.76 261.693 86.2 270.173 86.2H276.173V94.84H270.293C265.333 94.84 261.373 95.08 258.413 95.56C255.453 96.04 253.333 96.88 252.053 98.08C250.853 99.2 250.253 100.8 250.253 102.88C250.253 105.52 251.173 107.68 253.013 109.36C254.853 111.04 257.413 111.88 260.693 111.88C263.333 111.88 265.653 111.28 267.653 110.08C269.733 108.8 271.373 107.08 272.573 104.92C273.773 102.76 274.373 100.28 274.373 97.48V83.68C274.373 79.68 273.493 76.8 271.733 75.04C269.973 73.28 267.013 72.4 262.853 72.4C260.533 72.4 258.013 72.68 255.293 73.24C252.653 73.8 249.853 74.76 246.893 76.12C245.373 76.84 244.013 77.04 242.813 76.72C241.693 76.4 240.813 75.76 240.173 74.8C239.533 73.76 239.213 72.64 239.213 71.44C239.213 70.24 239.533 69.08 240.173 67.96C240.813 66.76 241.893 65.88 243.413 65.32C247.093 63.8 250.613 62.72 253.973 62.08C257.413 61.44 260.533 61.12 263.333 61.12C269.093 61.12 273.813 62 277.493 63.76C281.253 65.52 284.053 68.2 285.893 71.8C287.733 75.32 288.653 79.88 288.653 85.48V114.28C288.653 116.76 288.053 118.68 286.853 120.04C285.653 121.32 283.933 121.96 281.693 121.96C279.453 121.96 277.693 121.32 276.413 120.04C275.213 118.68 274.613 116.76 274.613 114.28V108.52H275.573C275.013 111.32 273.893 113.76 272.213 115.84C270.613 117.84 268.573 119.4 266.093 120.52C263.613 121.64 260.773 122.2 257.573 122.2ZM319.358 122.2C315.918 122.2 312.278 121.84 308.438 121.12C304.598 120.4 301.158 119.16 298.118 117.4C296.838 116.6 295.918 115.68 295.358 114.64C294.878 113.52 294.678 112.44 294.758 111.4C294.918 110.28 295.318 109.32 295.958 108.52C296.678 107.72 297.558 107.2 298.598 106.96C299.718 106.72 300.918 106.92 302.198 107.56C305.398 109.08 308.398 110.16 311.198 110.8C313.998 111.36 316.758 111.64 319.478 111.64C323.318 111.64 326.158 111 327.998 109.72C329.918 108.36 330.878 106.6 330.878 104.44C330.878 102.6 330.238 101.2 328.958 100.24C327.758 99.2 325.918 98.44 323.438 97.96L311.438 95.68C306.478 94.72 302.678 92.92 300.038 90.28C297.478 87.56 296.198 84.08 296.198 79.84C296.198 76 297.238 72.68 299.318 69.88C301.478 67.08 304.438 64.92 308.198 63.4C311.958 61.88 316.278 61.12 321.158 61.12C324.678 61.12 327.958 61.52 330.998 62.32C334.118 63.04 337.118 64.2 339.998 65.8C341.198 66.44 341.998 67.28 342.398 68.32C342.878 69.36 342.998 70.44 342.758 71.56C342.518 72.6 342.038 73.56 341.318 74.44C340.598 75.24 339.678 75.76 338.558 76C337.518 76.16 336.318 75.92 334.958 75.28C332.478 74 330.078 73.08 327.758 72.52C325.518 71.96 323.358 71.68 321.278 71.68C317.358 71.68 314.438 72.36 312.518 73.72C310.678 75.08 309.758 76.88 309.758 79.12C309.758 80.8 310.318 82.2 311.438 83.32C312.558 84.44 314.278 85.2 316.598 85.6L328.598 87.88C333.798 88.84 337.718 90.6 340.358 93.16C343.078 95.72 344.438 99.16 344.438 103.48C344.438 109.32 342.158 113.92 337.598 117.28C333.038 120.56 326.958 122.2 319.358 122.2ZM379.392 122.2C372.752 122.2 367.032 120.96 362.232 118.48C357.432 116 353.712 112.48 351.072 107.92C348.512 103.36 347.232 97.96 347.232 91.72C347.232 85.64 348.472 80.32 350.952 75.76C353.512 71.2 356.992 67.64 361.392 65.08C365.872 62.44 370.952 61.12 376.632 61.12C380.792 61.12 384.512 61.8 387.792 63.16C391.152 64.52 393.992 66.48 396.312 69.04C398.712 71.6 400.512 74.72 401.712 78.4C402.992 82 403.632 86.08 403.632 90.64C403.632 92.08 403.112 93.2 402.072 94C401.112 94.72 399.712 95.08 397.872 95.08H359.352V86.44H393.072L391.152 88.24C391.152 84.56 390.592 81.48 389.472 79C388.432 76.52 386.872 74.64 384.792 73.36C382.792 72 380.272 71.32 377.232 71.32C373.872 71.32 370.992 72.12 368.592 73.72C366.272 75.24 364.472 77.44 363.192 80.32C361.992 83.12 361.392 86.48 361.392 90.4V91.24C361.392 97.8 362.912 102.72 365.952 106C369.072 109.2 373.632 110.8 379.632 110.8C381.712 110.8 384.032 110.56 386.592 110.08C389.232 109.52 391.712 108.6 394.032 107.32C395.712 106.36 397.192 105.96 398.472 106.12C399.752 106.2 400.752 106.64 401.472 107.44C402.272 108.24 402.752 109.24 402.912 110.44C403.072 111.56 402.832 112.72 402.192 113.92C401.632 115.12 400.632 116.16 399.192 117.04C396.392 118.8 393.152 120.12 389.472 121C385.872 121.8 382.512 122.2 379.392 122.2ZM432.333 121.96C430.333 121.96 428.573 121.44 427.053 120.4C425.613 119.36 424.413 117.76 423.453 115.6L404.373 71.32C403.653 69.56 403.373 67.92 403.533 66.4C403.773 64.88 404.493 63.68 405.693 62.8C406.973 61.84 408.693 61.36 410.853 61.36C412.693 61.36 414.173 61.8 415.293 62.68C416.413 63.48 417.413 65.04 418.293 67.36L434.493 107.8H430.893L447.573 67.24C448.453 65 449.453 63.48 450.573 62.68C451.773 61.8 453.373 61.36 455.373 61.36C457.133 61.36 458.533 61.84 459.573 62.8C460.613 63.68 461.253 64.88 461.493 66.4C461.733 67.84 461.453 69.44 460.653 71.2L441.213 115.6C440.333 117.76 439.133 119.36 437.613 120.4C436.173 121.44 434.413 121.96 432.333 121.96ZM473.295 121.84C470.895 121.84 469.055 121.12 467.775 119.68C466.495 118.24 465.855 116.24 465.855 113.68V69.64C465.855 67 466.495 65 467.775 63.64C469.055 62.2 470.895 61.48 473.295 61.48C475.695 61.48 477.535 62.2 478.815 63.64C480.175 65 480.855 67 480.855 69.64V113.68C480.855 116.24 480.215 118.24 478.935 119.68C477.655 121.12 475.775 121.84 473.295 121.84ZM473.295 50.32C470.495 50.32 468.295 49.64 466.695 48.28C465.175 46.84 464.415 44.88 464.415 42.4C464.415 39.84 465.175 37.88 466.695 36.52C468.295 35.16 470.495 34.48 473.295 34.48C476.175 34.48 478.375 35.16 479.895 36.52C481.415 37.88 482.175 39.84 482.175 42.4C482.175 44.88 481.415 46.84 479.895 48.28C478.375 49.64 476.175 50.32 473.295 50.32ZM509.761 122.2C505.521 122.2 501.721 121.4 498.361 119.8C495.081 118.12 492.481 115.88 490.561 113.08C488.721 110.28 487.801 107.12 487.801 103.6C487.801 99.28 488.921 95.88 491.161 93.4C493.401 90.84 497.041 89 502.081 87.88C507.121 86.76 513.881 86.2 522.361 86.2H528.361V94.84H522.481C517.521 94.84 513.561 95.08 510.601 95.56C507.641 96.04 505.521 96.88 504.241 98.08C503.041 99.2 502.441 100.8 502.441 102.88C502.441 105.52 503.361 107.68 505.201 109.36C507.041 111.04 509.601 111.88 512.881 111.88C515.521 111.88 517.841 111.28 519.841 110.08C521.921 108.8 523.561 107.08 524.761 104.92C525.961 102.76 526.561 100.28 526.561 97.48V83.68C526.561 79.68 525.681 76.8 523.921 75.04C522.161 73.28 519.201 72.4 515.041 72.4C512.721 72.4 510.201 72.68 507.481 73.24C504.841 73.8 502.041 74.76 499.081 76.12C497.561 76.84 496.201 77.04 495.001 76.72C493.881 76.4 493.001 75.76 492.361 74.8C491.721 73.76 491.401 72.64 491.401 71.44C491.401 70.24 491.721 69.08 492.361 67.96C493.001 66.76 494.081 65.88 495.601 65.32C499.281 63.8 502.801 62.72 506.161 62.08C509.601 61.44 512.721 61.12 515.521 61.12C521.281 61.12 526.001 62 529.681 63.76C533.441 65.52 536.241 68.2 538.081 71.8C539.921 75.32 540.841 79.88 540.841 85.48V114.28C540.841 116.76 540.241 118.68 539.041 120.04C537.841 121.32 536.121 121.96 533.881 121.96C531.641 121.96 529.881 121.32 528.601 120.04C527.401 118.68 526.801 116.76 526.801 114.28V108.52H527.761C527.201 111.32 526.081 113.76 524.401 115.84C522.801 117.84 520.761 119.4 518.281 120.52C515.801 121.64 512.961 122.2 509.761 122.2Z" fill="black"/>
</svg>
